<svg viewBox="0 0 24 24">
<g>
<path d="m21.095 16.583v-15.256h-2.505v15.256c-1.13 0.486-1.921 1.609-1.921 2.916 0 1.752 1.422 3.174 3.173 3.174 1.752 0 3.174-1.422 3.174-3.174 0-1.307-0.791-2.43-1.921-2.916zm-2.505 2.916c0-0.691 0.561-1.253 1.252-1.253 0.692 0 1.253 0.562 1.253 1.253 0 0.692-0.561 1.253-1.253 1.253-0.691 0-1.252-0.561-1.252-1.253zm-13.18-12.082v15.256h-2.505v-15.256c-1.13-0.486-1.921-1.609-1.921-2.916 0-1.752 1.422-3.174 3.174-3.174 1.751 0 3.173 1.422 3.173 3.174 0 1.307-0.791 2.43-1.921 2.916zm-2.505-2.916c0-0.692 0.561-1.253 1.253-1.253 0.691 0 1.252 0.561 1.252 1.253 0 0.691-0.561 1.253-1.252 1.253-0.692 0-1.253-0.562-1.253-1.253zm10.348 4.787v-7.961h-2.506v7.961c-1.129 0.486-1.921 1.609-1.921 2.916s0.792 2.431 1.921 2.917v7.552h2.506v-7.552c1.129-0.486 1.921-1.61 1.921-2.917s-0.792-2.43-1.921-2.916zm-2.506 2.712c0-0.691 0.561-1.253 1.253-1.253 0.691 0 1.253 0.562 1.253 1.253 0 0.692-0.562 1.253-1.253 1.253-0.692 0-1.253-0.561-1.253-1.253z" fill="#888"/>
</g>
</svg>
